# xmcd CD database file
#
# Track frame offsets:
#	182
#	12955
#	24602
#	35600
#	50132
#	66727
#	80915
#	92517
#	105865
#	120930
#	135517
#	148730
#	161225
#	181970
#	191252
#	206320
#	225650
#	235947
#	247190
#	260525
#	272412
#	283300
#	296862
#	312930
#
# Disc length: 4308 seconds
#
# Revision: 0
# Processed by: cddbd v1.5.2PL0 Copyright (c) Steve Scherf et al.
# Submitted via: ACXtractor (MTCDDB.DLL V2003.07.15)
#
DISCID=6510d218
DTITLE=Gordon Parsons - Volume 2
DYEAR=2002
DGENRE=Country
TTITLE0=Born to be a Rolling Stone
TTITLE1=Back Where He Belongs
TTITLE2=Mangled Mass of Steel
TTITLE3=Trumby's Ghost
TTITLE4=Off To Queensland
TTITLE5=Remember Ronnie Martin
TTITLE6=The Yowie
TTITLE7=The Equaliser
TTITLE8=Why do I Gamble
TTITLE9=Blue Days and Dark Nights
TTITLE10=Johnny was a Fighting Man
TTITLE11=In the Luggage Van Ahead
TTITLE12=Born with an Endless Thirst
TTITLE13=Just Driftimg Along
TTITLE14=Let the Dingoes Drag me Around
TTITLE15=Malabar Mansion
TTITLE16=Where the Bellinger River Flows
TTITLE17=Let the Rest of the World go By
TTITLE18=The Legendary Beer
TTITLE19=The Convict's Letter Home
TTITLE20=The Showman
TTITLE21=Dusty Plains
TTITLE22=Why Should I Work
TTITLE23=Back to Those Rolling Plains
EXTD=ID3G:   2 YEAR: 2002
EXTT0=
EXTT1=
EXTT2=
EXTT3=
EXTT4=
EXTT5=
EXTT6=
EXTT7=
EXTT8=
EXTT9=
EXTT10=
EXTT11=
EXTT12=
EXTT13=
EXTT14=
EXTT15=
EXTT16=
EXTT17=
EXTT18=
EXTT19=
EXTT20=
EXTT21=
EXTT22=
EXTT23=
PLAYORDER=
